#
#
#

mtllib hongo.mtl


#
# Malla de 
#
g Malla de 


#
# Malla de _Material.001
#
usemtl Malla de _Material.001

v 0.041307 0.291250 -0.018443
v 0.035719 0.341150 -0.016497
v 0.042724 0.344776 0.012890
v 0.048967 0.293292 0.014354
v 0.026714 0.346192 0.038826
v 0.031232 0.294110 0.042987
v -0.002968 0.344535 0.046092
v -0.001550 0.293243 0.050915
v -0.028921 0.340862 0.030418
v -0.030410 0.291220 0.033448
v -0.035933 0.337347 0.000993
v -0.038400 0.289206 0.000591
v -0.019877 0.335971 -0.024938
v -0.020610 0.288361 -0.028367
v 0.009811 0.337517 -0.032166
v -0.044487 0.381656 -0.054300
v 0.008188 0.385632 -0.067248
v 0.012503 0.289199 -0.036235
v 0.038491 -0.010963 -0.027965
v 0.046991 -0.010963 0.007443
v 0.027965 -0.010963 0.038491
v -0.007443 -0.010963 0.046991
v -0.038491 -0.010963 0.027965
v -0.046991 -0.010963 -0.007443
v -0.027965 -0.010963 -0.038491
v 0.007443 -0.010963 -0.046991
v 0.010650 0.025235 -0.067243
v 0.055079 0.025235 -0.040017
v 0.011363 0.095984 -0.073256
v 0.059985 0.095984 -0.043460
v 0.009109 0.144853 -0.063699
v 0.052099 0.144853 -0.037355
v 0.009342 0.245225 -0.044798
v 0.040593 0.245626 -0.025558
v -0.040017 0.025235 -0.055079
v -0.044087 0.095984 -0.059943
v -0.039918 0.144853 -0.051929
v -0.026369 0.245085 -0.036294
v -0.067243 0.025235 -0.010650
v -0.073883 0.095984 -0.011321
v -0.066263 0.144853 -0.008938
v -0.045538 0.245229 -0.005021
v -0.055079 0.025235 0.040017
v -0.060570 0.095984 0.044129
v -0.054492 0.144853 0.040089
v -0.036916 0.245629 0.030621
v -0.010650 0.025235 0.067243
v -0.011948 0.095984 0.073925
v -0.011502 0.144853 0.066433
v -0.005646 0.246002 0.049741
v 0.040017 0.025235 0.055079
v 0.043502 0.095984 0.060612
v 0.037525 0.144853 0.054663
v 0.029949 0.246155 0.041221
v 0.067243 0.025235 0.010650
v 0.073298 0.095984 0.011990
v 0.063869 0.144853 0.011672
v 0.049091 0.246029 0.010062
v 0.066148 0.404739 0.012534
v 0.037524 0.408695 0.058573
v -0.060971 0.395188 0.043933
v -0.073172 0.385613 -0.008236
v 0.053997 0.395188 -0.039579
v -0.015110 0.404742 0.071577
v -0.268233 0.346181 -0.027837
v -0.154012 0.331696 -0.211979
v -0.035973 0.416119 0.291842
v -0.219340 0.381150 0.180853
v 0.288674 0.416119 0.055972
v 0.174453 0.430604 0.240114
v 0.056414 0.346181 -0.263707
v 0.239781 0.381150 -0.152718
v 0.218220 0.410834 -0.143773
v 0.263190 0.443005 0.048221
v 0.049524 0.378660 -0.245897
v -0.249166 0.378660 -0.028886
v -0.144081 0.365332 -0.198310
v -0.035470 0.443005 0.265210
v -0.204170 0.410834 0.163111
v 0.158110 0.456330 0.217620
v -0.001816 0.540894 -0.071773
v -0.044491 0.537821 -0.061236
v -0.016015 0.574901 -0.022043
v -0.012680 0.575130 -0.022863
v -0.067667 0.540908 -0.023861
v -0.057769 0.548359 0.018456
v -0.017050 0.575685 -0.015817
v -0.017825 0.575130 -0.019124
v -0.020594 0.555808 0.040928
v 0.022078 0.558922 0.030387
v -0.010809 0.576468 -0.014878
v -0.014144 0.576239 -0.014058
v 0.045255 0.555819 -0.006985
v 0.035359 0.548339 -0.049300
v -0.009774 0.575685 -0.021104
v -0.008999 0.576239 -0.017796
v 0.223653 0.474088 0.037318
v 0.133093 0.485684 0.183187
v 0.163046 0.504213 0.020856
v 0.094592 0.514499 0.130195
v 0.097651 0.531789 0.003326
v 0.053552 0.538614 0.073707
v -0.033702 0.474350 0.224127
v -0.179111 0.446334 0.136184
v -0.030930 0.504867 0.160985
v -0.140149 0.480218 0.095277
v -0.027215 0.531947 0.093620
v -0.097321 0.515574 0.051422
v -0.217918 0.417965 -0.029217
v -0.127318 0.406417 -0.175238
v -0.169071 0.455201 -0.028711
v -0.100586 0.445246 -0.138445
v -0.115716 0.499234 -0.028191
v -0.071640 0.492616 -0.098603
v 0.039599 0.418335 -0.216219
v 0.184966 0.446307 -0.128124
v 0.025176 0.455900 -0.169344
v 0.134362 0.480219 -0.103241
v 0.009106 0.499445 -0.118546
v 0.079234 0.515610 -0.076316
vn 0.804612 0.086119 -0.587522
vn 0.883028 -0.165060 -0.439337
vn 0.986337 0.050776 0.156722
vn 0.946247 -0.114454 0.302518
vn 0.986337 0.050776 0.156722
vn 0.650757 0.053074 0.757429
vn 0.946247 -0.114454 0.302518
vn 0.474798 -0.119971 0.871879
vn 0.650757 0.053074 0.757429
vn -0.097357 0.040994 0.994405
vn -0.190953 -0.229343 0.954431
vn -0.750430 -0.255289 0.609657
vn -0.097357 0.040994 0.994405
vn -0.807787 0.059165 0.586498
vn -0.943074 -0.313524 -0.110970
vn -0.981458 0.108089 -0.158292
vn -0.519714 -0.254981 -0.815403
vn -0.578314 0.168894 -0.798140
vn 0.309778 -0.243390 -0.919129
vn 0.094718 -0.938443 -0.332194
vn -0.224761 -0.956138 -0.187836
vn 0.153097 0.125482 -0.980212
vn 0.153097 0.125482 -0.980212
vn 0.433518 -0.870808 -0.231854
vn 0.399824 -0.908546 0.121180
vn -0.470489 -0.870808 -0.142597
vn -0.278327 -0.807284 -0.520411
vn 0.208770 -0.694219 -0.688822
vn 0.339448 -0.694219 0.634693
vn -0.171179 -0.807284 0.564793
vn -0.520411 -0.807284 0.278327
vn 0.157036 -0.297458 -0.941732
vn 0.776950 -0.297385 -0.554898
vn 0.208770 -0.694219 -0.688822
vn 0.019679 0.054607 -0.998314
vn 0.719836 0.058459 -0.691678
vn 0.776950 -0.297385 -0.554898
vn 0.153740 0.192454 -0.969188
vn 0.795675 0.180936 -0.578069
vn 0.155517 0.185335 -0.970292
vn 0.802652 0.127024 -0.582764
vn 0.795675 0.180936 -0.578069
vn 0.804612 0.086119 -0.587522
vn 0.802652 0.127024 -0.582764
vn -0.554563 -0.299114 -0.776525
vn -0.692463 0.043240 -0.720156
vn 0.157036 -0.297458 -0.941732
vn -0.576443 0.193527 -0.793890
vn 0.019679 0.054607 -0.998314
vn 0.019679 0.054607 -0.998314
vn -0.576443 0.193527 -0.793890
vn -0.506713 0.207239 -0.836836
vn 0.153740 0.192454 -0.969188
vn 0.153097 0.125482 -0.980212
vn 0.155517 0.185335 -0.970292
vn -0.940522 -0.301381 -0.156806
vn -0.554563 -0.299114 -0.776525
vn -0.999327 0.030977 -0.019658
vn -0.940522 -0.301381 -0.156806
vn -0.554563 -0.299114 -0.776525
vn -0.970839 0.183759 -0.153965
vn -0.692463 0.043240 -0.720156
vn -0.970839 0.183759 -0.153965
vn -0.938128 0.197478 -0.284462
vn -0.981458 0.108088 -0.158292
vn -0.775505 -0.302930 0.553919
vn -0.940522 -0.301381 -0.156806
vn -0.940522 -0.301381 -0.156806
vn -0.720760 0.025034 0.692732
vn -0.999327 0.030977 -0.019658
vn -0.999327 0.030977 -0.019658
vn -0.940522 -0.301381 -0.156806
vn -0.797503 0.168795 0.579222
vn -0.999327 0.030977 -0.019658
vn -0.999327 0.030977 -0.019658
vn -0.872225 0.146175 0.466751
vn -0.938128 0.197478 -0.284462
vn -0.872225 0.146175 0.466751
vn -0.981458 0.108088 -0.158292
vn -0.938128 0.197478 -0.284462
vn -0.156660 -0.302857 0.940072
vn -0.775505 -0.302930 0.553919
vn -0.520411 -0.807284 0.278327
vn -0.019988 0.028930 0.999382
vn -0.720760 0.025034 0.692732
vn -0.775505 -0.302930 0.553919
vn -0.154662 0.157168 0.975386
vn -0.720760 0.025034 0.692732
vn -0.154662 0.157168 0.975386
vn -0.288294 0.086709 0.953608
vn -0.797503 0.168795 0.579222
vn -0.807787 0.059165 0.586498
vn -0.872225 0.146175 0.466751
vn 0.554258 -0.301205 0.775934
vn -0.156660 -0.302857 0.940072
vn -0.171179 -0.807284 0.564793
vn 0.692167 0.040355 0.720609
vn 0.554258 -0.301205 0.775934
vn -0.156660 -0.302857 0.940072
vn 0.580554 0.155757 0.799185
vn -0.019988 0.028930 0.999382
vn -0.154662 0.157168 0.975386
vn -0.019988 0.028930 0.999382
vn 0.538160 0.038520 0.841962
vn -0.288294 0.086709 0.953608
vn -0.154662 0.157168 0.975386
vn 0.538160 0.038520 0.841962
vn 0.650757 0.053074 0.757429
vn -0.097357 0.040994 0.994405
vn -0.288294 0.086709 0.953608
vn 0.941286 -0.298939 0.156896
vn 0.998415 0.052574 0.020097
vn 0.941286 -0.298939 0.156896
vn 0.692167 0.040355 0.720609
vn 0.974054 0.165636 0.154218
vn 0.580555 0.155757 0.799185
vn 0.974054 0.165636 0.154218
vn 0.984996 0.072252 0.156723
vn 0.538160 0.038520 0.841962
vn 0.538160 0.038520 0.841962
vn 0.650757 0.053074 0.757429
vn 0.538160 0.038520 0.841962
vn 0.941286 -0.298939 0.156896
vn 0.941286 -0.298939 0.156896
vn 0.399824 -0.908546 0.121180
vn 0.776950 -0.297385 -0.554898
vn 0.776950 -0.297385 -0.554898
vn 0.998415 0.052574 0.020097
vn 0.998415 0.052574 0.020097
vn 0.998415 0.052574 0.020097
vn 0.795675 0.180936 -0.578069
vn 0.974054 0.165636 0.154218
vn 0.802652 0.127024 -0.582764
vn 0.974054 0.165636 0.154218
vn 0.802652 0.127024 -0.582764
vn 0.415577 -0.796542 0.439108
vn 0.554633 -0.823617 0.118484
vn -0.943074 -0.313524 -0.110970
vn -0.750430 -0.255289 0.609657
vn -0.350925 -0.926731 0.134242
vn -0.216529 -0.868719 0.445469
vn 0.883028 -0.165060 -0.439337
vn 0.421901 -0.882963 -0.205853
vn 0.309778 -0.243390 -0.919129
vn 0.946247 -0.114454 0.302518
vn 0.554633 -0.823617 0.118484
vn 0.474798 -0.119971 0.871879
vn 0.097555 -0.815577 0.570366
vn -0.519714 -0.254981 -0.815403
vn -0.943074 -0.313524 -0.110970
vn -0.190953 -0.229343 0.954431
vn -0.527703 -0.667723 -0.525049
vn -0.350925 -0.926731 0.134242
vn -0.789661 -0.609483 0.070466
vn 0.097555 -0.815577 0.570366
vn -0.554724 -0.498371 0.666264
vn 0.097555 -0.815577 0.570366
vn 0.034044 -0.399597 0.916058
vn 0.415577 -0.796542 0.439108
vn 0.554633 -0.823617 0.118484
vn 0.634229 -0.370134 0.678789
vn 0.899623 -0.427066 0.091068
vn 0.094718 -0.938443 -0.332194
vn 0.080372 -0.638036 -0.765801
vn -0.224761 -0.956138 -0.187836
vn -0.216529 -0.868719 0.445469
vn 0.097555 -0.815577 0.570366
vn 0.415577 -0.796542 0.439108
vn 0.415577 -0.796542 0.439108
vn 0.034044 -0.399597 0.916058
vn 0.421901 -0.882963 -0.205853
vn 0.672533 -0.537959 -0.508231
vn 0.899623 -0.427066 0.091068
vn 0.421901 -0.882963 -0.205853
vn 0.672533 -0.537959 -0.508231
vn 0.899623 -0.427066 0.091068
vn 0.546486 0.646739 -0.532054
vn 0.669697 0.742260 0.023564
vn 0.672533 -0.537959 -0.508231
vn 0.080372 -0.638036 -0.765801
vn 0.061405 0.550770 -0.832395
vn -0.527703 -0.667723 -0.525049
vn -0.789661 -0.609483 0.070466
vn -0.808504 0.549660 -0.210228
vn -0.500541 0.511002 -0.698810
vn -0.196124 0.740242 0.643100
vn -0.554724 -0.498371 0.666264
vn -0.681903 0.644265 0.346309
vn 0.899623 -0.427066 0.091068
vn 0.634229 -0.370134 0.678788
vn 0.362314 0.780934 0.508794
vn 0.080372 -0.638036 -0.765801
vn -0.554724 -0.498371 0.666264
vn -0.789661 -0.609483 0.070466
vn -0.808504 0.549660 -0.210228
vn 0.034044 -0.399597 0.916058
vn 0.034044 -0.399597 0.916058
vn -0.196124 0.740242 0.643100
vn -0.008233 0.787002 -0.616895
vn -0.380643 0.757173 -0.530848
vn -0.260164 0.860144 -0.438711
vn -0.015642 0.914189 -0.404987
vn -0.587309 0.782324 -0.207455
vn -0.504617 0.847927 0.162423
vn -0.309117 0.950687 -0.025336
vn -0.324509 0.923728 -0.203520
vn -0.182378 0.915067 0.359708
vn 0.188447 0.944298 0.269796
vn 0.067734 0.981751 0.177702
vn -0.183841 0.973546 0.135687
vn 0.391439 0.918727 -0.052112
vn 0.310283 0.853771 -0.418091
vn 0.108471 0.962154 -0.249988
vn 0.125953 0.989505 -0.070823
vn -0.008233 0.787002 -0.616895
vn 0.310283 0.853771 -0.418091
vn 0.108471 0.962154 -0.249988
vn -0.260164 0.860144 -0.438711
vn -0.309117 0.950687 -0.025336
vn 0.391439 0.918727 -0.052112
vn 0.067734 0.981751 0.177702
vn 0.108471 0.962154 -0.249988
vn -0.309117 0.950687 -0.025336
vn 0.125953 0.989505 -0.070823
vn 0.067734 0.981751 0.177702
vn -0.015642 0.914189 -0.404986
vn -0.324509 0.923728 -0.203520
vn 0.108471 0.962154 -0.249988
vn -0.324509 0.923728 -0.203520
vn -0.015642 0.914189 -0.404987
vn -0.260164 0.860144 -0.438711
vn 0.531895 0.846739 -0.011011
vn 0.362314 0.780934 0.508794
vn 0.277878 0.874750 0.396984
vn 0.531895 0.846739 -0.011011
vn 0.430985 0.900664 -0.055287
vn 0.212107 0.932395 0.292662
vn 0.415591 0.907182 -0.065612
vn 0.201648 0.940321 0.274107
vn 0.188447 0.944298 0.269796
vn -0.196124 0.740242 0.643100
vn -0.194368 0.839721 0.507041
vn -0.597478 0.763231 0.245965
vn -0.194368 0.839721 0.507041
vn -0.188168 0.905154 0.381169
vn -0.522289 0.836644 0.165045
vn -0.188579 0.909245 0.371094
vn -0.522289 0.836644 0.165045
vn -0.529911 0.830924 0.169588
vn -0.182378 0.915067 0.359708
vn -0.504617 0.847927 0.162423
vn -0.500542 0.511002 -0.698810
vn -0.686535 0.693199 -0.219419
vn -0.425884 0.668782 -0.609388
vn -0.686535 0.693199 -0.219419
vn -0.603148 0.768282 -0.214374
vn -0.397592 0.737435 -0.545995
vn -0.623411 0.751301 -0.216578
vn -0.410033 0.718314 -0.562049
vn -0.587309 0.782324 -0.207455
vn 0.061405 0.550770 -0.832395
vn 0.028675 0.701275 -0.712314
vn 0.425012 0.774204 -0.469012
vn 0.028675 0.701275 -0.712314
vn -0.013459 0.761643 -0.647857
vn 0.333948 0.829251 -0.448131
vn -0.014394 0.751156 -0.659968
vn 0.327606 0.829335 -0.452634
vn -0.014394 0.751156 -0.659968
vn -0.008233 0.787002 -0.616896
vn 0.425012 0.774204 -0.469012
vn 0.425012 0.774204 -0.469012
vn 0.531895 0.846739 -0.011011
vn 0.531895 0.846739 -0.011011
vn 0.425012 0.774204 -0.469012
vn 0.531895 0.846739 -0.011011
vn 0.430985 0.900664 -0.055287
vn 0.327606 0.829335 -0.452634
vn 0.327606 0.829335 -0.452634
vn 0.415591 0.907182 -0.065612
vn 0.415591 0.907182 -0.065612
vn 0.415591 0.907182 -0.065612
vn 0.310283 0.853771 -0.418091
vn 0.391439 0.918727 -0.052112
vn -0.196124 0.740242 0.643100
vn -0.194368 0.839721 0.507041
vn 0.277878 0.874750 0.396984
vn 0.212107 0.932395 0.292662
vn -0.188168 0.905154 0.381169
vn 0.201648 0.940321 0.274107
vn -0.188579 0.909245 0.371094
vn -0.188579 0.909245 0.371094
vn -0.188579 0.909245 0.371094
vn -0.808504 0.549660 -0.210228
vn -0.597479 0.763231 0.245965
vn -0.686535 0.693199 -0.219419
vn -0.597479 0.763231 0.245965
vn -0.686535 0.693199 -0.219419
vn -0.603148 0.768282 -0.214374
vn -0.522289 0.836644 0.165045
vn -0.529911 0.830924 0.169588
vn -0.623411 0.751301 -0.216578
vn -0.623411 0.751301 -0.216578
vn -0.504617 0.847927 0.162423
vn -0.504617 0.847927 0.162423
vn -0.587309 0.782324 -0.207455
vn 0.061405 0.550770 -0.832395
vn -0.500541 0.511002 -0.698810
vn -0.425884 0.668782 -0.609388
vn 0.028675 0.701275 -0.712314
vn 0.028675 0.701275 -0.712314
vn -0.397592 0.737435 -0.545995
vn 0.028675 0.701275 -0.712314
vn -0.013459 0.761643 -0.647857
vn -0.397592 0.737435 -0.545995
vn -0.410033 0.718313 -0.562049
vn -0.014394 0.751156 -0.659968
vn -0.014394 0.751156 -0.659968
vn -0.380643 0.757173 -0.530848
vn -0.008233 0.787002 -0.616896
vt 0.589623 0.581063
vt 0.602788 0.580111
vt 0.589203 0.548527
vt 0.602794 0.550914
vt 0.595004 0.525463
vt 0.608192 0.530008
vt 0.742640 0.623007
vt 0.755381 0.617577
vt 0.738039 0.599843
vt 0.750992 0.596641
vt 0.750990 0.567339
vt 0.738531 0.567255
vt 0.755381 0.546847
vt 0.743872 0.544255
vt 0.447410 0.586772
vt 0.458866 0.584236
vt 0.454491 0.555099
vt 0.442649 0.554287
vt 0.721450 0.245844
vt 0.721501 0.268847
vt 0.747405 0.240676
vt 0.747406 0.281514
vt 0.447849 0.530095
vt 0.459281 0.533247
vt 0.596081 0.604105
vt 0.608192 0.600534
vt 0.290674 0.585895
vt 0.290674 0.550718
vt 0.205752 0.585896
vt 0.230625 0.610769
vt 0.265801 0.610768
vt 0.265801 0.525845
vt 0.230625 0.525846
vt 0.205752 0.550719
vt 0.273428 0.629085
vt 0.309021 0.593492
vt 0.533959 0.635484
vt 0.550068 0.640499
vt 0.538350 0.601851
vt 0.523251 0.600169
vt 0.562378 0.631668
vt 0.552017 0.597496
vt 0.586364 0.613151
vt 0.578929 0.588224
vt 0.223093 0.629086
vt 0.371521 0.551999
vt 0.385052 0.548138
vt 0.393406 0.507563
vt 0.379155 0.514924
vt 0.399284 0.550668
vt 0.406671 0.514793
vt 0.429344 0.552512
vt 0.434776 0.526431
vt 0.187500 0.593493
vt 0.378551 0.601842
vt 0.392746 0.602685
vt 0.406086 0.598897
vt 0.434324 0.587595
vt 0.187500 0.543157
vt 0.672252 0.548187
vt 0.687682 0.546212
vt 0.697514 0.507563
vt 0.681236 0.512871
vt 0.411979 0.639253
vt 0.423092 0.631229
vt 0.446791 0.611051
vt 0.459281 0.608321
vt 0.223093 0.507563
vt 0.670692 0.598499
vt 0.685975 0.601273
vt 0.699044 0.598265
vt 0.700554 0.549582
vt 0.726755 0.595526
vt 0.727757 0.560133
vt 0.273428 0.507563
vt 0.677469 0.634336
vt 0.693391 0.640492
vt 0.705602 0.632941
vt 0.731547 0.620716
vt 0.309021 0.543155
vt 0.521781 0.549854
vt 0.536741 0.546786
vt 0.546184 0.507562
vt 0.530409 0.514013
vt 0.550594 0.548810
vt 0.558944 0.514130
vt 0.578003 0.552860
vt 0.584097 0.527733
vt 0.666519 0.246237
vt 0.682600 0.229874
vt 0.650162 0.241820
vt 0.678672 0.212625
vt 0.705432 0.285242
vt 0.682662 0.285402
vt 0.718889 0.310757
vt 0.678563 0.311204
vt 0.705341 0.229717
vt 0.718948 0.212151
vt 0.666541 0.269242
vt 0.650115 0.282637
vt 0.882341 0.333292
vt 0.768261 0.449869
vt 0.606928 0.451597
vt 0.492848 0.337462
vt 0.492848 0.174325
vt 0.606928 0.057748
vt 0.882341 0.170155
vt 0.768261 0.056020
vt 0.080615 0.326470
vt 0.179894 0.425759
vt 0.188509 0.413224
vt 0.097179 0.321875
vt 0.320295 0.424306
vt 0.317683 0.411896
vt 0.419574 0.322962
vt 0.419574 0.181093
vt 0.409023 0.188129
vt 0.409027 0.318657
vt 0.320295 0.081803
vt 0.179894 0.083256
vt 0.188511 0.098130
vt 0.317678 0.096786
vt 0.080615 0.184600
vt 0.097182 0.191363
vt 0.284746 0.296716
vt 0.304865 0.276138
vt 0.275202 0.264030
vt 0.273629 0.265636
vt 0.304860 0.247346
vt 0.284734 0.227205
vt 0.273629 0.260208
vt 0.275202 0.261781
vt 0.256276 0.227514
vt 0.236160 0.248093
vt 0.269830 0.261837
vt 0.271404 0.260231
vt 0.236164 0.276885
vt 0.256288 0.297025
vt 0.271404 0.265659
vt 0.269830 0.264085
vt 0.122595 0.314164
vt 0.122638 0.201754
vt 0.161640 0.302274
vt 0.161975 0.217811
vt 0.203738 0.289335
vt 0.203971 0.234954
vt 0.201352 0.121457
vt 0.312668 0.120267
vt 0.221229 0.157398
vt 0.304756 0.156326
vt 0.242067 0.196027
vt 0.295695 0.195353
vt 0.391390 0.198944
vt 0.391377 0.311452
vt 0.363711 0.215377
vt 0.363491 0.300069
vt 0.333455 0.233331
vt 0.333243 0.287722
vt 0.312604 0.391811
vt 0.201259 0.392903
vt 0.304132 0.360621
vt 0.220490 0.361464
vt 0.295167 0.326657
vt 0.241518 0.327322
f 1/1/1 2/2/2 4/3/3
f 2/2/2 3/4/4 4/3/3
f 4/3/5 3/4/4 6/5/6
f 3/4/7 5/6/8 6/5/6
f 6/7/9 5/8/8 8/9/10
f 5/8/8 7/10/11 8/9/10
f 8/9/10 7/10/11 9/11/12
f 8/9/13 9/11/12 10/12/14
f 10/12/14 9/11/12 11/13/15
f 10/12/14 11/13/15 12/14/16
f 12/15/16 11/16/15 13/17/17
f 12/15/16 13/17/17 14/18/18
f 15/19/19 13/20/17 17/21/20
f 13/20/17 16/22/21 17/21/20
f 14/18/18 13/17/17 18/23/22
f 13/17/17 15/24/19 18/23/22
f 18/25/23 15/26/19 1/1/1
f 15/26/19 2/2/2 1/1/1
f 19/27/24 20/28/25 24/29/26
f 19/27/24 25/30/27 26/31/28
f 19/27/24 24/29/26 25/30/27
f 20/28/25 21/32/29 22/33/30
f 20/28/25 23/34/31 24/29/26
f 20/28/25 22/33/30 23/34/31
f 26/31/28 27/35/32 28/36/33
f 26/31/34 28/36/33 19/27/24
f 27/37/32 29/38/35 30/39/36
f 27/37/32 30/39/36 28/40/37
f 29/38/35 31/41/38 30/39/36
f 31/41/38 32/42/39 30/39/36
f 31/41/38 33/43/40 32/42/39
f 33/43/40 34/44/41 32/42/42
f 33/43/40 18/25/23 34/44/41
f 18/25/23 1/1/43 34/44/44
f 25/30/27 35/45/45 27/35/32
f 25/30/27 27/35/32 26/31/34
f 35/46/45 36/47/46 29/48/35
f 35/46/45 29/48/35 27/49/47
f 36/47/46 37/50/48 29/48/49
f 37/50/48 31/51/38 29/48/50
f 37/50/51 38/52/52 31/51/53
f 38/52/52 33/53/40 31/51/38
f 38/52/52 14/18/18 33/53/40
f 14/18/18 18/23/54 33/53/55
f 24/29/26 39/54/56 35/45/45
f 24/29/26 35/45/57 25/30/27
f 39/55/56 40/56/58 36/47/46
f 39/55/59 36/47/46 35/46/60
f 40/56/58 41/57/61 36/47/46
f 41/57/61 37/50/51 36/47/62
f 41/57/63 42/58/64 37/50/51
f 42/58/64 38/52/52 37/50/48
f 42/58/64 12/15/65 14/18/18
f 42/58/64 14/18/18 38/52/52
f 23/34/31 43/59/66 39/54/67
f 23/34/31 39/54/68 24/29/26
f 43/60/66 44/61/69 40/62/70
f 43/60/66 40/62/71 39/63/72
f 44/64/69 45/65/73 40/56/74
f 45/65/73 41/57/61 40/56/75
f 45/65/73 46/66/76 41/57/63
f 46/66/76 42/58/77 41/57/61
f 46/66/76 10/67/14 12/15/16
f 46/66/78 12/15/79 42/58/80
f 22/33/30 47/68/81 43/59/66
f 22/33/30 43/59/82 23/34/83
f 47/69/81 48/70/84 44/61/69
f 47/69/81 44/61/85 43/60/86
f 48/70/84 49/71/87 44/61/88
f 49/71/87 45/72/73 44/61/69
f 49/71/89 50/73/90 45/72/73
f 50/73/90 46/74/78 45/72/91
f 50/73/90 8/9/10 10/12/14
f 50/73/90 10/12/92 46/74/93
f 21/32/29 51/75/94 47/68/81
f 21/32/29 47/68/95 22/33/96
f 51/76/94 52/77/97 48/70/84
f 51/76/98 48/70/84 47/69/99
f 52/77/97 53/78/100 48/70/101
f 53/78/100 49/71/102 48/70/103
f 53/78/100 54/79/104 49/71/102
f 54/79/104 50/73/105 49/71/106
f 54/79/107 6/7/108 8/9/109
f 54/79/104 8/9/13 50/73/110
f 20/28/25 55/80/111 51/75/94
f 20/28/25 51/75/98 21/32/29
f 55/81/111 56/82/112 52/83/97
f 55/81/113 52/83/114 51/84/94
f 56/82/112 57/85/115 52/83/114
f 57/85/115 53/86/116 52/83/114
f 57/85/117 58/87/118 53/86/116
f 58/87/118 54/88/119 53/86/100
f 58/87/118 4/3/5 54/88/120
f 4/3/5 6/5/121 54/88/122
f 19/27/24 28/36/33 55/80/123
f 19/27/24 55/80/124 20/28/125
f 28/40/126 30/39/36 56/82/112
f 28/40/127 56/82/128 55/81/113
f 30/39/36 32/42/39 56/82/129
f 32/42/42 57/85/117 56/82/130
f 32/42/131 34/44/41 57/85/132
f 34/44/133 58/87/118 57/85/134
f 34/44/135 1/1/43 58/87/118
f 1/1/1 4/3/3 58/87/118
f 5/89/8 3/90/4 60/91/136
f 3/90/4 59/92/137 60/91/136
f 11/93/138 9/94/139 62/95/140
f 9/94/139 61/96/141 62/95/140
f 2/97/142 15/19/19 63/98/143
f 15/19/144 17/21/20 63/98/143
f 3/90/145 2/97/2 59/92/137
f 2/97/2 63/98/143 59/92/146
f 7/99/11 5/89/147 64/100/148
f 5/89/8 60/91/136 64/100/148
f 13/20/149 11/93/150 16/22/21
f 11/93/138 62/95/140 16/22/21
f 9/94/139 7/99/11 61/96/141
f 7/99/151 64/100/148 61/96/141
f 16/22/21 62/95/140 66/101/152
f 62/95/153 65/102/154 66/101/152
f 61/96/141 64/100/155 68/103/156
f 64/100/157 67/104/158 68/103/156
f 60/91/159 59/92/160 70/105/161
f 59/92/137 69/106/162 70/105/161
f 17/21/163 16/22/21 71/107/164
f 16/22/165 66/101/152 71/107/164
f 62/95/153 61/96/166 65/102/154
f 61/96/166 68/103/156 65/102/154
f 64/100/167 60/91/168 67/104/158
f 60/91/169 70/105/161 67/104/170
f 59/92/146 63/98/171 69/106/162
f 63/98/171 72/108/172 69/106/173
f 63/98/174 17/21/163 72/108/172
f 17/21/163 71/107/164 72/108/175
f 69/109/176 72/110/175 73/111/177
f 69/109/176 73/111/177 74/112/178
f 72/110/179 71/113/180 75/114/181
f 72/110/175 75/114/181 73/111/177
f 66/115/182 65/116/183 76/117/184
f 66/115/182 76/117/184 77/118/185
f 68/119/156 67/120/170 78/121/186
f 68/119/187 78/121/186 79/122/188
f 70/123/161 69/109/189 74/112/178
f 70/123/190 74/112/178 80/124/191
f 71/113/192 66/115/152 77/118/185
f 71/113/180 77/118/185 75/114/181
f 65/116/154 68/119/193 79/122/188
f 65/116/194 79/122/188 76/117/195
f 67/120/196 70/123/161 80/124/191
f 67/120/197 80/124/191 78/121/198
f 81/125/199 82/126/200 83/127/201
f 81/125/199 83/127/201 84/128/202
f 85/129/203 86/130/204 87/131/205
f 85/129/203 87/131/205 88/132/206
f 89/133/207 90/134/208 91/135/209
f 89/133/207 91/135/209 92/136/210
f 93/137/211 94/138/212 95/139/213
f 93/137/211 95/139/213 96/140/214
f 94/138/212 81/125/215 84/128/202
f 94/138/216 84/128/202 95/139/217
f 82/126/200 85/129/203 88/132/206
f 82/126/200 88/132/206 83/127/218
f 86/130/204 89/133/207 92/136/210
f 86/130/204 92/136/210 87/131/219
f 90/134/208 93/137/220 96/140/214
f 90/134/208 96/140/214 91/135/221
f 96/140/214 95/139/222 87/131/223
f 96/140/224 92/136/210 91/135/225
f 96/140/224 87/131/223 92/136/210
f 95/139/222 84/128/226 88/132/227
f 95/139/228 88/132/229 87/131/223
f 84/128/230 83/127/231 88/132/227
f 80/124/191 74/112/178 97/141/232
f 80/124/233 97/141/232 98/142/234
f 98/142/234 97/141/235 99/143/236
f 98/142/234 99/143/236 100/144/237
f 100/144/237 99/143/236 101/145/238
f 100/144/237 101/145/238 102/146/239
f 102/146/239 101/145/238 93/137/220
f 102/146/239 93/137/211 90/134/240
f 79/122/188 78/121/241 103/147/242
f 79/122/188 103/147/242 104/148/243
f 104/148/243 103/147/244 105/149/245
f 104/148/243 105/149/245 106/150/246
f 106/150/246 105/149/245 107/151/247
f 106/150/248 107/151/247 108/152/249
f 108/152/249 107/151/247 89/133/250
f 108/152/249 89/133/207 86/130/251
f 77/118/252 76/117/184 109/153/253
f 77/118/252 109/153/253 110/154/254
f 110/154/254 109/153/255 111/155/256
f 110/154/254 111/155/256 112/156/257
f 112/156/257 111/155/256 113/157/258
f 112/156/257 113/157/258 114/158/259
f 114/158/259 113/157/258 85/129/260
f 114/158/259 85/129/260 82/126/200
f 73/111/177 75/114/261 115/159/262
f 73/111/177 115/159/262 116/160/263
f 116/160/263 115/159/264 117/161/265
f 116/160/263 117/161/265 118/162/266
f 118/162/266 117/161/265 119/163/267
f 118/162/266 119/163/267 120/164/268
f 120/164/268 119/163/269 81/125/215
f 120/164/268 81/125/270 94/138/216
f 74/112/178 73/111/177 116/160/271
f 74/112/178 116/160/272 97/141/273
f 97/141/274 116/160/275 118/162/266
f 97/141/276 118/162/266 99/143/277
f 99/143/277 118/162/266 120/164/278
f 99/143/277 120/164/279 101/145/280
f 101/145/281 120/164/279 94/138/216
f 101/145/282 94/138/283 93/137/284
f 78/121/186 80/124/233 98/142/234
f 78/121/285 98/142/234 103/147/244
f 103/147/286 98/142/287 100/144/237
f 103/147/242 100/144/288 105/149/245
f 105/149/289 100/144/237 102/146/290
f 105/149/289 102/146/290 107/151/291
f 107/151/292 102/146/239 90/134/208
f 107/151/293 90/134/208 89/133/250
f 76/117/184 79/122/188 104/148/243
f 76/117/294 104/148/295 109/153/296
f 109/153/296 104/148/297 106/150/246
f 109/153/298 106/150/246 111/155/256
f 111/155/299 106/150/300 108/152/301
f 111/155/299 108/152/301 113/157/302
f 113/157/303 108/152/301 86/130/304
f 113/157/258 86/130/305 85/129/306
f 75/114/307 77/118/308 110/154/254
f 75/114/307 110/154/309 115/159/310
f 115/159/311 110/154/254 112/156/312
f 115/159/313 112/156/257 117/161/314
f 117/161/314 112/156/315 114/158/316
f 117/161/314 114/158/316 119/163/269
f 119/163/317 114/158/259 82/126/200
f 119/163/318 82/126/319 81/125/320
